<svg width="26" height="26" viewBox="5 5 25 26" fill="none" xmlns="http://www.w3.org/2000/svg">
    <path d="M29.7497 18.2891C29.7497 17.4326 29.6808 16.5714 29.5339 15.7288H17.7451V20.5809H24.496C24.2158 22.1458 23.3157 23.5301 21.9977 24.4098V27.5582H26.0252C28.3903 25.3636 29.7497 22.1227 29.7497 18.2891Z" fill="white"/>
    <path d="M17.7449 30.6001C21.1158 30.6001 23.9585 29.4843 26.0297 27.5583L22.0021 24.4099C20.8816 25.1785 19.4349 25.6137 17.7495 25.6137C14.4889 25.6137 11.7243 23.396 10.7323 20.4143H6.57617V23.6599C8.69787 27.9148 13.0193 30.6001 17.7449 30.6001Z" fill="white"/>
    <path d="M10.7281 20.4144C10.2046 18.8495 10.2046 17.155 10.7281 15.59V12.3445H6.57658C4.8039 15.9049 4.8039 20.0996 6.57658 23.66L10.7281 20.4144Z" fill="white"/>
    <path d="M17.7449 10.3859C19.5268 10.3582 21.2489 11.0341 22.5394 12.2749L26.1077 8.6775C23.8483 6.53849 20.8494 5.36249 17.7449 5.39953C13.0193 5.39953 8.69787 8.08487 6.57617 12.3444L10.7277 15.5899C11.7151 12.6037 14.4843 10.3859 17.7449 10.3859Z" fill="white"/>
</svg>